<svg width="1526" height="559" viewBox="0 0 1526 559" fill="none" xmlns="http://www.w3.org/2000/svg">
<path d="M1525 423.895C1525 423.895 1412.01 636.715 1181.22 636.715C950.438 636.715 767.252 269.103 585.989 269.103C404.725 269.103 391.102 466.938 -20.3061 466.938" stroke="#661BA8" stroke-width="0.25" stroke-miterlimit="10"/>
<path d="M1525 420.229C1525 420.229 1412.17 621.411 1182.19 621.411C952.201 621.411 770.778 275.161 586.95 275.161C403.123 275.161 387.576 451.953 -20.3061 451.953" stroke="#661BA8" stroke-width="0.3065" stroke-miterlimit="10"/>
<path d="M1525 416.562C1525 416.562 1412.49 606.108 1182.99 606.108C953.484 606.108 774.304 281.219 587.752 281.219C401.199 281.219 383.89 436.968 -20.3061 436.968" stroke="#661BA8" stroke-width="0.3629" stroke-miterlimit="10"/>
<path d="M1525 412.896C1525 412.896 1412.65 590.803 1183.79 590.803C954.926 590.803 777.83 287.276 588.713 287.276C399.597 287.276 380.364 421.982 -20.3061 421.982" stroke="#661BA8" stroke-width="0.4194" stroke-miterlimit="10"/>
<path d="M1525 409.229C1525 409.229 1412.97 575.34 1184.75 575.34C956.529 575.34 781.355 293.334 589.675 293.334C397.994 293.334 376.678 406.838 -20.146 406.838" stroke="#661BA8" stroke-width="0.4758" stroke-miterlimit="10"/>
<path d="M1525 405.563C1525 405.563 1413.13 560.036 1185.55 560.036C957.971 560.036 784.721 299.392 590.476 299.392C396.231 299.392 372.992 391.853 -20.3061 391.853" stroke="#661BA8" stroke-width="0.5323" stroke-miterlimit="10"/>
<path d="M1525 401.896C1525 401.896 1413.45 544.732 1186.51 544.732C959.574 544.732 788.407 305.45 591.438 305.45C394.468 305.45 369.466 376.868 -20.146 376.868" stroke="#661BA8" stroke-width="0.5887" stroke-miterlimit="10"/>
<path d="M1525 398.23C1525 398.23 1413.61 529.269 1187.31 529.269C961.016 529.269 791.933 311.508 592.239 311.508C392.545 311.508 365.62 361.883 -20.3061 361.883" stroke="#661BA8" stroke-width="0.6452" stroke-miterlimit="10"/>
<path d="M1525 394.563C1525 394.563 1413.93 513.965 1188.12 513.965C962.298 513.965 795.299 317.565 593.04 317.565C390.782 317.565 361.934 346.738 -20.3061 346.738" stroke="#661BA8" stroke-width="0.7016" stroke-miterlimit="10"/>
<path d="M1525 390.896C1525 390.896 1414.09 498.661 1189.08 498.661C964.061 498.661 798.985 323.783 594.002 323.783C389.019 323.783 358.408 331.913 -20.3061 331.913" stroke="#661BA8" stroke-width="0.7581" stroke-miterlimit="10"/>
<path d="M1525 387.23C1525 387.23 1414.25 483.198 1189.88 483.198C965.504 483.198 802.351 329.681 594.803 329.681C387.256 329.681 354.722 316.768 -20.3061 316.768" stroke="#661BA8" stroke-width="0.8145" stroke-miterlimit="10"/>
<path d="M1525 383.563C1525 383.563 1414.58 467.894 1190.84 467.894C967.106 467.894 806.037 335.739 595.765 335.739C385.493 335.739 351.035 301.783 -20.3061 301.783" stroke="#661BA8" stroke-width="0.871" stroke-miterlimit="10"/>
<path d="M1525 379.897C1525 379.897 1414.74 452.59 1191.64 452.59C968.549 452.59 809.402 341.956 596.727 341.956C384.051 341.956 347.349 286.639 -20.3061 286.639" stroke="#661BA8" stroke-width="0.9274" stroke-miterlimit="10"/>
<path d="M1525 376.23C1525 376.23 1415.06 437.286 1192.44 437.286C969.831 437.286 812.928 348.014 597.528 348.014C382.127 348.014 343.823 271.813 -20.3061 271.813" stroke="#661BA8" stroke-width="0.9839" stroke-miterlimit="10"/>
<path d="M1525 372.564C1525 372.564 1415.22 421.823 1193.41 421.823C971.594 421.823 816.454 353.912 598.489 353.912C380.525 353.912 340.137 256.668 -20.3061 256.668" stroke="#661BA8" stroke-width="1.0403" stroke-miterlimit="10"/>
<path d="M1525 368.738C1525 368.738 1415.54 406.36 1194.21 406.36C972.876 406.36 819.98 359.97 599.291 359.97C378.601 359.97 336.451 241.684 -20.3061 241.684" stroke="#661BA8" stroke-width="1.0968" stroke-miterlimit="10"/>
<path d="M1525 365.071C1525 365.071 1415.7 391.056 1195.17 391.056C974.639 391.056 823.506 366.028 600.252 366.028C376.999 366.028 332.925 226.539 -20.3061 226.539" stroke="#661BA8" stroke-width="1.1532" stroke-miterlimit="10"/>
<path d="M1525 361.404C1525 361.404 1415.86 375.592 1195.97 375.592C976.081 375.592 827.032 371.926 601.054 371.926C375.076 371.926 329.239 211.554 -20.3061 211.554" stroke="#661BA8" stroke-width="1.2097" stroke-miterlimit="10"/>
<path d="M1525 357.738C1525 357.738 1416.18 360.289 1196.93 360.289C977.684 360.289 830.558 378.143 602.015 378.143C373.473 378.143 325.553 196.569 -20.3061 196.569" stroke="#661BA8" stroke-width="1.2661" stroke-miterlimit="10"/>
<path d="M1525 354.072C1525 354.072 1416.34 344.985 1197.73 344.985C979.126 344.985 834.084 384.201 602.817 384.201C371.55 384.201 321.867 181.584 -20.3061 181.584" stroke="#661BA8" stroke-width="1.3226" stroke-miterlimit="10"/>
<path d="M1525 350.405C1525 350.405 1416.66 329.681 1198.53 329.681C980.409 329.681 837.61 390.259 603.778 390.259C369.947 390.259 318.18 166.599 -20.3061 166.599" stroke="#661BA8" stroke-width="1.379" stroke-miterlimit="10"/>
<path d="M1525 346.738C1525 346.738 1416.82 314.217 1199.5 314.217C982.172 314.217 841.135 396.316 604.74 396.316C368.344 396.316 314.654 151.454 -20.146 151.454" stroke="#661BA8" stroke-width="1.4355" stroke-miterlimit="10"/>
<path d="M1525 343.072C1525 343.072 1417.14 298.914 1200.3 298.914C983.454 298.914 844.661 402.374 605.541 402.374C366.421 402.374 310.968 136.469 -20.3061 136.469" stroke="#661BA8" stroke-width="1.4919" stroke-miterlimit="10"/>
<path d="M1525 339.405C1525 339.405 1417.3 283.61 1201.26 283.61C985.217 283.61 848.187 408.432 606.503 408.432C364.818 408.432 307.442 121.484 -20.146 121.484" stroke="#661BA8" stroke-width="1.5484" stroke-miterlimit="10"/>
<path d="M1525 335.739C1525 335.739 1417.46 268.146 1202.06 268.146C986.659 268.146 851.713 414.49 607.304 414.49C362.895 414.49 303.596 106.499 -20.3061 106.499" stroke="#661BA8" stroke-width="1.6048" stroke-miterlimit="10"/>
<path d="M1525 332.072C1525 332.072 1417.78 252.843 1202.86 252.843C987.941 252.843 855.239 420.548 608.106 420.548C360.972 420.548 299.91 91.5142 -20.3061 91.5142" stroke="#661BA8" stroke-width="1.6613" stroke-miterlimit="10"/>
<path d="M1525 328.406C1525 328.406 1417.94 237.539 1203.82 237.539C989.704 237.539 858.765 426.765 609.067 426.765C359.369 426.765 296.384 76.3697 -20.3061 76.3697" stroke="#661BA8" stroke-width="1.7177" stroke-miterlimit="10"/>
<path d="M1525 324.739C1525 324.739 1418.26 222.235 1204.62 222.235C990.986 222.235 862.131 432.823 609.869 432.823C357.606 432.823 292.698 61.3844 -20.3061 61.3844" stroke="#661BA8" stroke-width="1.7742" stroke-miterlimit="10"/>
<path d="M1525 321.072C1525 321.072 1418.42 206.772 1205.59 206.772C992.749 206.772 865.817 438.721 610.99 438.721C356.164 438.721 289.012 46.3995 -20.3061 46.3995" stroke="#661BA8" stroke-width="1.8306" stroke-miterlimit="10"/>
<path d="M1525 317.406C1525 317.406 1418.74 191.467 1206.39 191.467C994.031 191.467 869.183 444.938 611.792 444.938C354.401 444.938 285.325 31.4142 -20.3061 31.4142" stroke="#661BA8" stroke-width="1.8871" stroke-miterlimit="10"/>
<path d="M1525 313.739C1525 313.739 1418.9 176.164 1207.19 176.164C995.474 176.164 872.708 450.837 612.593 450.837C352.478 450.837 281.799 16.2697 -20.3061 16.2697" stroke="#661BA8" stroke-width="1.9435" stroke-miterlimit="10"/>
<path d="M1525 310.073C1525 310.073 1419.22 160.7 1208.15 160.7C997.077 160.7 876.395 456.894 613.555 456.894C350.715 456.894 278.113 1.28485 -20.3061 1.28485" stroke="#661BA8" stroke-width="2" stroke-miterlimit="10"/>
</svg>
