<svg id="Layer_2" data-name="Layer 2" xmlns="http://www.w3.org/2000/svg" xmlns:xlink="http://www.w3.org/1999/xlink" viewBox="0 0 566.02 555.52"><defs><style>.cls-1{fill:url(#radial-gradient);}.cls-2{fill:url(#linear-gradient);}.cls-3{fill:url(#linear-gradient-2);}.cls-4{fill:url(#linear-gradient-3);}.cls-5{fill:url(#linear-gradient-4);}.cls-6{fill:url(#linear-gradient-5);}.cls-7{fill:url(#linear-gradient-6);}.cls-8{fill:url(#linear-gradient-7);}.cls-9{fill:url(#linear-gradient-8);}.cls-10{fill:url(#linear-gradient-9);}.cls-11{fill:url(#linear-gradient-10);}.cls-12{fill:url(#linear-gradient-11);}.cls-13{fill:url(#linear-gradient-12);}.cls-14{fill:url(#linear-gradient-13);}.cls-15{fill:url(#linear-gradient-14);}.cls-16{fill:url(#linear-gradient-15);}.cls-17{fill:url(#linear-gradient-16);}.cls-18{fill:url(#linear-gradient-17);}.cls-19{fill:url(#linear-gradient-18);}.cls-20{fill:url(#linear-gradient-19);}.cls-21{fill:url(#linear-gradient-20);}.cls-22{fill:url(#linear-gradient-21);}.cls-23{fill:url(#linear-gradient-22);}.cls-24{fill:url(#linear-gradient-23);}.cls-25{fill:url(#linear-gradient-24);}.cls-26{fill:url(#linear-gradient-25);}.cls-27{fill:url(#linear-gradient-26);}.cls-28{fill:url(#linear-gradient-27);}.cls-29{fill:url(#linear-gradient-28);}.cls-30{fill:url(#linear-gradient-29);}.cls-31{fill:url(#linear-gradient-30);}.cls-32{fill:url(#linear-gradient-31);}.cls-33{fill:url(#linear-gradient-32);}.cls-34{fill:url(#linear-gradient-33);}.cls-35{fill:url(#linear-gradient-34);}.cls-36{fill:url(#linear-gradient-35);}.cls-37{fill:url(#linear-gradient-36);}.cls-38{fill:url(#linear-gradient-37);}.cls-39{fill:url(#linear-gradient-38);}.cls-40{fill:url(#linear-gradient-39);}.cls-41{fill:url(#linear-gradient-40);}.cls-42{fill:url(#linear-gradient-41);}.cls-43{fill:url(#linear-gradient-42);}.cls-44{fill:url(#linear-gradient-43);}.cls-45{fill:url(#linear-gradient-44);}.cls-46{fill:url(#linear-gradient-45);}.cls-47{fill:url(#linear-gradient-46);}.cls-48{fill:url(#linear-gradient-47);}.cls-49{fill:url(#linear-gradient-48);}.cls-50{fill:url(#linear-gradient-49);}.cls-51{fill:url(#linear-gradient-50);}.cls-52{fill:url(#linear-gradient-51);}.cls-53{fill:url(#linear-gradient-52);}.cls-54{fill:url(#linear-gradient-53);}.cls-55{fill:url(#linear-gradient-54);}.cls-56{fill:url(#linear-gradient-55);}.cls-57{fill:url(#linear-gradient-56);}.cls-58{fill:url(#linear-gradient-57);}.cls-59{fill:url(#linear-gradient-58);}.cls-60{fill:url(#linear-gradient-59);}.cls-61{fill:url(#linear-gradient-60);}.cls-62{fill:url(#linear-gradient-61);}.cls-63{fill:url(#linear-gradient-62);}.cls-64{fill:url(#linear-gradient-63);}.cls-65{fill:url(#linear-gradient-64);}.cls-66{fill:url(#linear-gradient-65);}.cls-67{fill:url(#linear-gradient-66);}.cls-68{fill:url(#linear-gradient-67);}.cls-69{fill:url(#linear-gradient-68);}.cls-70{fill:url(#linear-gradient-69);}.cls-71{fill:url(#linear-gradient-70);}.cls-72{fill:url(#linear-gradient-71);}.cls-73{fill:url(#linear-gradient-72);}.cls-74{fill:url(#linear-gradient-73);}.cls-75{fill:url(#linear-gradient-74);}.cls-76{fill:url(#linear-gradient-75);}.cls-77{fill:url(#linear-gradient-76);}.cls-78{fill:url(#linear-gradient-77);}.cls-79{fill:url(#linear-gradient-78);}.cls-80{fill:url(#linear-gradient-79);}.cls-81{fill:url(#linear-gradient-80);}.cls-82{fill:url(#linear-gradient-81);}.cls-83{fill:url(#linear-gradient-82);}.cls-84{fill:url(#linear-gradient-83);}.cls-85{fill:url(#linear-gradient-84);}.cls-86{fill:url(#linear-gradient-85);}.cls-87{fill:url(#linear-gradient-86);}.cls-88{fill:url(#linear-gradient-87);}.cls-89{fill:url(#linear-gradient-88);}.cls-90{fill:url(#linear-gradient-89);}.cls-91{fill:url(#linear-gradient-90);}</style><radialGradient id="radial-gradient" cx="235.78" cy="188.66" r="259.91" gradientTransform="matrix(1.1, -0.31, -0.34, -0.41, 82.72, 537.73)" gradientUnits="userSpaceOnUse"><stop offset="0.17" stop-color="#3b1090" stop-opacity="0.3"/><stop offset="0.46" stop-color="#482098" stop-opacity="0.28"/><stop offset="0.68" stop-color="#7354b0" stop-opacity="0.21"/><stop offset="0.86" stop-color="#bbacd8" stop-opacity="0.1"/><stop offset="0.99" stop-color="#fff" stop-opacity="0"/></radialGradient><linearGradient id="linear-gradient" x1="568.11" y1="434.91" x2="480.22" y2="229.5" gradientTransform="matrix(1, 0, 0, -1, 0, 510.33)" gradientUnits="userSpaceOnUse"><stop offset="0" stop-color="#5730a7"/><stop offset="1" stop-color="#220273"/></linearGradient><linearGradient id="linear-gradient-2" x1="637.27" y1="150.54" x2="331.33" y2="204.08" xlink:href="#linear-gradient"/><linearGradient id="linear-gradient-3" x1="319.69" y1="-8.39" x2="158.4" y2="209.97" xlink:href="#linear-gradient"/><linearGradient id="linear-gradient-4" x1="129.23" y1="470.38" x2="465.17" y2="265.9" gradientTransform="matrix(1, 0, 0, -1, 0, 510.33)" gradientUnits="userSpaceOnUse"><stop offset="0" stop-color="#8060c1"/><stop offset="1" stop-color="#d680ff"/></linearGradient><linearGradient id="linear-gradient-5" x1="134.52" y1="467.18" x2="459.76" y2="269.2" gradientTransform="matrix(1, 0, 0, -1, 0, 510.33)" gradientUnits="userSpaceOnUse"><stop offset="0" stop-color="#6c42c2"/><stop offset="1" stop-color="#33098e"/></linearGradient><linearGradient id="linear-gradient-6" x1="134.13" y1="467.41" x2="447.34" y2="276.76" xlink:href="#linear-gradient"/><linearGradient id="linear-gradient-7" x1="159.87" y1="444.57" x2="428.22" y2="281.22" gradientTransform="matrix(1, 0, 0, -1, 0, 510.33)" gradientUnits="userSpaceOnUse"><stop offset="0" stop-color="#8671d5"/><stop offset="1" stop-color="#442ba2"/></linearGradient><linearGradient id="linear-gradient-8" x1="301.5" y1="574.06" x2="301.5" y2="308.62" gradientTransform="matrix(1, 0, 0, -1, 0, 510.33)" gradientUnits="userSpaceOnUse"><stop offset="0" stop-color="#ec65da"/><stop offset="1" stop-color="#fff" stop-opacity="0"/></linearGradient><linearGradient id="linear-gradient-9" x1="314.27" y1="320.79" x2="271.09" y2="390.07" gradientTransform="matrix(1, 0, 0, -1, 0, 510.33)" gradientUnits="userSpaceOnUse"><stop offset="0" stop-color="#cdacff"/><stop offset="0.09" stop-color="#ad8be7"/><stop offset="0.22" stop-color="#8864cc"/><stop offset="0.33" stop-color="#6d47b8"/><stop offset="0.43" stop-color="#5d36ab"/><stop offset="0.51" stop-color="#5730a7"/><stop offset="0.52" stop-color="#552fa5"/><stop offset="0.71" stop-color="#39168a"/><stop offset="0.88" stop-color="#280779"/><stop offset="1" stop-color="#220273"/></linearGradient><linearGradient id="linear-gradient-10" x1="314.25" y1="320.94" x2="271.07" y2="390.21" xlink:href="#linear-gradient-9"/><linearGradient id="linear-gradient-11" x1="314.25" y1="321.1" x2="271.07" y2="390.36" xlink:href="#linear-gradient-9"/><linearGradient id="linear-gradient-12" x1="314.25" y1="321.26" x2="271.07" y2="390.52" xlink:href="#linear-gradient-9"/><linearGradient id="linear-gradient-13" x1="314.27" y1="321.44" x2="271.09" y2="390.7" xlink:href="#linear-gradient-9"/><linearGradient id="linear-gradient-14" x1="314.25" y1="321.57" x2="271.07" y2="390.84" xlink:href="#linear-gradient-9"/><linearGradient id="linear-gradient-15" x1="314.28" y1="321.74" x2="271.1" y2="391.02" xlink:href="#linear-gradient-9"/><linearGradient id="linear-gradient-16" x1="314.26" y1="321.89" x2="271.08" y2="391.17" xlink:href="#linear-gradient-9"/><linearGradient id="linear-gradient-17" x1="314.28" y1="322.06" x2="271.1" y2="391.34" xlink:href="#linear-gradient-9"/><linearGradient id="linear-gradient-18" x1="314.25" y1="322.21" x2="271.07" y2="391.48" xlink:href="#linear-gradient-9"/><linearGradient id="linear-gradient-19" x1="314.27" y1="322.38" x2="271.09" y2="391.65" xlink:href="#linear-gradient-9"/><linearGradient id="linear-gradient-20" x1="314.25" y1="322.53" x2="271.07" y2="391.79" xlink:href="#linear-gradient-9"/><linearGradient id="linear-gradient-21" x1="314.26" y1="322.69" x2="271.08" y2="391.95" xlink:href="#linear-gradient-9"/><linearGradient id="linear-gradient-22" x1="314.26" y1="322.85" x2="271.08" y2="392.11" xlink:href="#linear-gradient-9"/><linearGradient id="linear-gradient-23" x1="314.28" y1="323.01" x2="271.1" y2="392.28" xlink:href="#linear-gradient-9"/><linearGradient id="linear-gradient-24" x1="314.25" y1="323.15" x2="271.07" y2="392.43" xlink:href="#linear-gradient-9"/><linearGradient id="linear-gradient-25" x1="314.28" y1="323.33" x2="271.1" y2="392.6" xlink:href="#linear-gradient-9"/><linearGradient id="linear-gradient-26" x1="314.26" y1="323.48" x2="271.08" y2="392.75" xlink:href="#linear-gradient-9"/><linearGradient id="linear-gradient-27" x1="314.28" y1="323.65" x2="271.1" y2="392.92" xlink:href="#linear-gradient-9"/><linearGradient id="linear-gradient-28" x1="314.25" y1="323.79" x2="271.07" y2="393.07" xlink:href="#linear-gradient-9"/><linearGradient id="linear-gradient-29" x1="314.27" y1="323.96" x2="271.09" y2="393.24" xlink:href="#linear-gradient-9"/><linearGradient id="linear-gradient-30" x1="314.26" y1="324.12" x2="271.08" y2="393.38" xlink:href="#linear-gradient-9"/><linearGradient id="linear-gradient-31" x1="314.26" y1="324.28" x2="271.08" y2="393.54" xlink:href="#linear-gradient-9"/><linearGradient id="linear-gradient-32" x1="314.26" y1="324.44" x2="271.08" y2="393.7" xlink:href="#linear-gradient-9"/><linearGradient id="linear-gradient-33" x1="314.28" y1="324.59" x2="271.1" y2="393.87" xlink:href="#linear-gradient-9"/><linearGradient id="linear-gradient-34" x1="314.26" y1="324.74" x2="271.08" y2="394.02" xlink:href="#linear-gradient-9"/><linearGradient id="linear-gradient-35" x1="314.28" y1="324.91" x2="271.1" y2="394.19" xlink:href="#linear-gradient-9"/><linearGradient id="linear-gradient-36" x1="314.27" y1="325.07" x2="271.09" y2="394.34" xlink:href="#linear-gradient-9"/><linearGradient id="linear-gradient-37" x1="314.27" y1="325.23" x2="271.09" y2="394.51" xlink:href="#linear-gradient-9"/><linearGradient id="linear-gradient-38" x1="314.25" y1="325.38" x2="271.07" y2="394.65" xlink:href="#linear-gradient-9"/><linearGradient id="linear-gradient-39" x1="314.27" y1="325.55" x2="271.09" y2="394.81" xlink:href="#linear-gradient-9"/><linearGradient id="linear-gradient-40" x1="314.26" y1="325.7" x2="271.08" y2="394.96" xlink:href="#linear-gradient-9"/><linearGradient id="linear-gradient-41" x1="314.28" y1="325.88" x2="271.1" y2="395.13" xlink:href="#linear-gradient-9"/><linearGradient id="linear-gradient-42" x1="314.27" y1="326.01" x2="271.09" y2="395.29" xlink:href="#linear-gradient-9"/><linearGradient id="linear-gradient-43" x1="314.28" y1="326.18" x2="271.1" y2="395.45" xlink:href="#linear-gradient-9"/><linearGradient id="linear-gradient-44" x1="314.26" y1="326.33" x2="271.08" y2="395.6" xlink:href="#linear-gradient-9"/><linearGradient id="linear-gradient-45" x1="314.28" y1="326.5" x2="271.1" y2="395.77" xlink:href="#linear-gradient-9"/><linearGradient id="linear-gradient-46" x1="314.28" y1="326.66" x2="271.1" y2="395.93" xlink:href="#linear-gradient-9"/><linearGradient id="linear-gradient-47" x1="314.23" y1="326.79" x2="271.05" y2="396.06" xlink:href="#linear-gradient-9"/><linearGradient id="linear-gradient-48" x1="314.26" y1="326.96" x2="271.08" y2="396.24" xlink:href="#linear-gradient-9"/><linearGradient id="linear-gradient-49" x1="314.27" y1="327.14" x2="271.09" y2="396.39" xlink:href="#linear-gradient-9"/><linearGradient id="linear-gradient-50" x1="314.26" y1="327.29" x2="271.08" y2="396.55" xlink:href="#linear-gradient-9"/><linearGradient id="linear-gradient-51" x1="314.24" y1="327.43" x2="271.06" y2="396.69" xlink:href="#linear-gradient-9"/><linearGradient id="linear-gradient-52" x1="314.28" y1="327.6" x2="271.1" y2="396.88" xlink:href="#linear-gradient-9"/><linearGradient id="linear-gradient-53" x1="314.23" y1="327.74" x2="271.06" y2="397.01" xlink:href="#linear-gradient-9"/><linearGradient id="linear-gradient-54" x1="314.26" y1="327.91" x2="271.08" y2="397.19" xlink:href="#linear-gradient-9"/><linearGradient id="linear-gradient-55" x1="314.28" y1="328.08" x2="271.1" y2="397.36" xlink:href="#linear-gradient-9"/><linearGradient id="linear-gradient-56" x1="314.27" y1="328.24" x2="271.09" y2="397.52" xlink:href="#linear-gradient-9"/><linearGradient id="linear-gradient-57" x1="314.23" y1="328.37" x2="271.05" y2="397.65" xlink:href="#linear-gradient-9"/><linearGradient id="linear-gradient-58" x1="314.26" y1="328.55" x2="271.08" y2="397.81" xlink:href="#linear-gradient-9"/><linearGradient id="linear-gradient-59" x1="314.23" y1="328.69" x2="271.05" y2="397.95" xlink:href="#linear-gradient-9"/><linearGradient id="linear-gradient-60" x1="314.27" y1="328.88" x2="271.09" y2="398.14" xlink:href="#linear-gradient-9"/><linearGradient id="linear-gradient-61" x1="314.25" y1="329.01" x2="271.07" y2="398.29" xlink:href="#linear-gradient-9"/><linearGradient id="linear-gradient-62" x1="314.28" y1="329.19" x2="271.1" y2="398.46" xlink:href="#linear-gradient-9"/><linearGradient id="linear-gradient-63" x1="314.24" y1="329.32" x2="271.06" y2="398.6" xlink:href="#linear-gradient-9"/><linearGradient id="linear-gradient-64" x1="314.27" y1="329.5" x2="271.09" y2="398.78" xlink:href="#linear-gradient-9"/><linearGradient id="linear-gradient-65" x1="314.28" y1="329.67" x2="271.1" y2="398.94" xlink:href="#linear-gradient-9"/><linearGradient id="linear-gradient-66" x1="314.27" y1="329.82" x2="271.09" y2="399.1" xlink:href="#linear-gradient-9"/><linearGradient id="linear-gradient-67" x1="314.23" y1="329.96" x2="271.06" y2="399.24" xlink:href="#linear-gradient-9"/><linearGradient id="linear-gradient-68" x1="314.27" y1="330.15" x2="271.09" y2="399.4" xlink:href="#linear-gradient-9"/><linearGradient id="linear-gradient-69" x1="314.24" y1="330.28" x2="271.06" y2="399.54" xlink:href="#linear-gradient-9"/><linearGradient id="linear-gradient-70" x1="314.28" y1="330.45" x2="271.1" y2="399.73" xlink:href="#linear-gradient-9"/><linearGradient id="linear-gradient-71" x1="314.26" y1="330.6" x2="271.08" y2="399.87" xlink:href="#linear-gradient-9"/><linearGradient id="linear-gradient-72" x1="314.28" y1="330.77" x2="271.1" y2="400.05" xlink:href="#linear-gradient-9"/><linearGradient id="linear-gradient-73" x1="314.24" y1="330.91" x2="271.06" y2="400.19" xlink:href="#linear-gradient-9"/><linearGradient id="linear-gradient-74" x1="314.28" y1="331.09" x2="271.1" y2="400.37" xlink:href="#linear-gradient-9"/><linearGradient id="linear-gradient-75" x1="314.23" y1="331.22" x2="271.05" y2="400.5" xlink:href="#linear-gradient-9"/><linearGradient id="linear-gradient-76" x1="314.27" y1="331.41" x2="271.09" y2="400.68" xlink:href="#linear-gradient-9"/><linearGradient id="linear-gradient-77" x1="314.24" y1="331.55" x2="271.06" y2="400.81" xlink:href="#linear-gradient-9"/><linearGradient id="linear-gradient-78" x1="314.27" y1="331.73" x2="271.09" y2="400.99" xlink:href="#linear-gradient-9"/><linearGradient id="linear-gradient-79" x1="314.24" y1="331.87" x2="271.06" y2="401.13" xlink:href="#linear-gradient-9"/><linearGradient id="linear-gradient-80" x1="314.28" y1="332.04" x2="271.1" y2="401.31" xlink:href="#linear-gradient-9"/><linearGradient id="linear-gradient-81" x1="314.25" y1="332.18" x2="271.07" y2="401.45" xlink:href="#linear-gradient-9"/><linearGradient id="linear-gradient-82" x1="314.24" y1="332.33" x2="271.06" y2="401.61" xlink:href="#linear-gradient-9"/><linearGradient id="linear-gradient-83" x1="314.25" y1="332.5" x2="271.07" y2="401.77" xlink:href="#linear-gradient-9"/><linearGradient id="linear-gradient-84" x1="314.28" y1="332.68" x2="271.1" y2="401.95" xlink:href="#linear-gradient-9"/><linearGradient id="linear-gradient-85" x1="314.23" y1="332.81" x2="271.05" y2="402.08" xlink:href="#linear-gradient-9"/><linearGradient id="linear-gradient-86" x1="314.27" y1="332.99" x2="271.09" y2="402.27" xlink:href="#linear-gradient-9"/><linearGradient id="linear-gradient-87" x1="314.25" y1="333.14" x2="271.07" y2="402.4" xlink:href="#linear-gradient-9"/><linearGradient id="linear-gradient-88" x1="314.27" y1="333.32" x2="271.09" y2="402.57" xlink:href="#linear-gradient-9"/><linearGradient id="linear-gradient-89" x1="314.25" y1="333.44" x2="271.07" y2="402.72" xlink:href="#linear-gradient-9"/><linearGradient id="linear-gradient-90" x1="257.77" y1="413.44" x2="320.78" y2="338.64" gradientTransform="matrix(1, 0, 0, -1, 0, 510.33)" gradientUnits="userSpaceOnUse"><stop offset="0" stop-color="#fff"/><stop offset="0.52" stop-color="#f2ebff"/><stop offset="1" stop-color="#e4d5ff"/></linearGradient></defs><ellipse class="cls-1" cx="283.01" cy="392.12" rx="283.01" ry="163.4"/><polygon class="cls-2" points="473.95 244.15 473.68 337.89 538.08 196.94 538.36 103.2 473.95 244.15"/><polygon class="cls-3" points="230.8 281.92 230.53 375.66 473.68 337.89 473.95 244.15 230.8 281.92"/><polygon class="cls-4" points="52.05 178.74 51.79 272.48 230.53 375.66 230.8 281.92 52.05 178.74"/><polygon class="cls-5" points="473.95 244.15 538.36 103.2 359.62 0 116.46 37.77 52.05 178.74 230.8 281.92 473.95 244.15"/><polygon class="cls-6" points="60.04 176.18 120.72 43.39 358.4 6.47 530.37 105.75 469.69 238.55 232 275.47 60.04 176.18"/><polygon class="cls-7" points="120.72 66.83 358.4 29.91 521.9 124.3 530.37 105.75 358.4 6.47 120.72 43.39 60.04 176.18 68.52 181.07 120.72 66.83"/><polygon class="cls-8" points="485.04 124.86 444.62 213.3 444.26 214.07 400.54 220.88 364.15 226.53 246.68 244.78 235.7 246.47 218.87 236.76 158.45 201.87 99.89 168.07 140.65 78.83 158.45 76.06 218.87 66.68 246.68 62.36 349.21 46.43 364.15 55.06 400.54 76.06 444.62 101.52 485.04 124.86"/><path class="cls-9" d="M246.68,62.36V244.78l117.47-18.25V55.06l-14.94-8.63Zm-88.23,139.5,60.36,34.9V66.68l-60.42,9.38ZM400.54,76.05V220.86l43.72-6.81.36-.75V101.52Z"/><path class="cls-10" d="M239.62,173.33l-58.31-3L162,181.54l69.87,40.34,22.95-13.25L223.05,190.3l58.2,3,19.36-11.21-69.87-40.34-23,13.25Zm62.09-72.51L320,111.37l20.46-11.82,51.6,29.8,23.57-13.6L364,86l20.46-11.82L366.1,63.59Zm10.37,74.68,23.56-13.59L313.27,149l29.14-16.82-17.76-10.27L295.5,138.76l-12-6.92,33.24-19.21L299,102.38,242.2,135.17Z"/><path class="cls-11" d="M239.62,173.17l-58.31-3L162,181.38l69.87,40.34,22.95-13.25-31.73-18.33,58.2,3,19.36-11.21-69.87-40.34-23,13.25Zm62.09-72.51L320,111.21l20.39-11.82L392,129.19l23.56-13.6L363.93,85.8,384.39,74,366.1,63.43Zm10.37,74.7,23.56-13.61-22.42-12.9L342.36,132,324.6,121.8l-29.15,16.83-12-6.91,33.24-19.22-17.77-10.24-56.79,32.79Z"/><path class="cls-12" d="M239.62,173l-58.31-3L162,181.25l69.87,40.35,22.89-13.34L223,189.93l58.26,3,19.36-11.21-69.87-40.34-23,13.25Zm62.09-72.51L320,111.08l20.46-11.82,51.6,29.8,23.5-13.66L363.93,85.61l20.46-11.84L366.1,63.27Zm10.37,74.7,23.56-13.61-22.42-12.9,29.14-16.83L324.6,121.63l-29.15,16.83-12-6.92,33.24-19.21-17.77-10.25-56.79,32.79Z"/><path class="cls-13" d="M239.62,172.84l-58.37-3L161.89,181l69.87,40.35,23-13.26L223,189.8l58.26,3,19.36-11.21-69.87-40.35-23,13.26Zm62.09-72.49L320,110.89l20.46-11.82,51.6,29.8,23.57-13.6L364,85.48l20.46-11.82L366.1,63.11ZM312.08,175l23.56-13.61-22.42-12.9,29.14-16.83L324.6,121.44l-29.15,16.82-12-6.85,33.24-19.21-17.77-10.26-56.79,32.78Z"/><path class="cls-14" d="M239.62,172.68l-58.31-3L162,180.9l69.87,40.34L254.78,208l-31.73-18.33,58.2,3,19.36-11.2L230.74,141.1l-23,13.24Zm62.09-72.49L320,110.73l20.46-11.8L392,128.71l23.57-13.6L364,85.32,384.45,73.5,366.1,63Zm10.37,74.69,23.56-13.61-22.42-12.9,29.14-16.83L324.6,121.28,295.45,138.1l-12-6.91L316.71,112l-17.77-10.26-56.79,32.9Z"/><path class="cls-15" d="M239.62,172.52l-58.31-3L162,180.74l69.8,40.33,23-13.26L223,189.5l58.26,3,19.36-11.2L230.77,141l-23,13.25ZM301.71,100l18.2,10.57,20.46-11.82L392,128.58,415.54,115l-51.61-29.8,20.46-11.81L366.1,62.79Zm10.37,74.69,23.56-13.61-22.42-12.9,29.14-16.8L324.6,121.15,295.45,138l-12-6.91,33.24-19.21-17.77-10.27-56.79,32.79Z"/><path class="cls-16" d="M239.62,172.36l-58.31-3L162,180.58l69.87,40.34,22.95-13.25-31.73-18.32,58.2,2.9L300.61,181,230.74,140.7l-23,13.25Zm62.09-72.49L320,110.42l20.46-11.81L392,128.4l23.57-13.61L363.93,85l20.46-11.81L366.1,62.65ZM312,174.64l23.55-13.59-22.41-12.92L342.3,131.3,324.54,121l-29.09,16.77-12-6.9,33.24-19.21-17.77-10.26-56.79,32.79Z"/><path class="cls-17" d="M239.62,172.2l-58.31-3L162,180.42l69.87,40.33,22.95-13.26-31.73-18.31,58.2,3L300.61,181,230.74,140.6l-22.93,13.22Zm62.09-72.49L320,110.26l20.46-11.81L392,128.21l23.56-13.61L363.93,84.81,384.39,73,366.1,62.57Zm10.37,74.69,23.56-13.59-22.42-12.92,29.14-16.83L324.6,120.81l-29.15,16.83-12-6.92,33.24-19.21-17.77-10.26L242.15,134Z"/><path class="cls-18" d="M239.62,172.06l-58.31-3L162,180.26l69.87,40.33,22.95-13.24L223,189.05,281.25,192l19.36-11.2-69.87-40.35-23,13.26Zm62.09-72.51L320,110.1l20.46-11.81L392,128.08l23.57-13.61L364,84.68l20.46-11.8L366.1,62.33Zm10.37,74.69,23.56-13.59-22.42-12.92,29.14-16.83L324.6,120.65l-29.15,16.83-12-6.92,33.24-19.21-17.77-10.26-56.79,32.8Z"/><path class="cls-19" d="M239.62,171.9l-58.31-3L162,180.1l69.87,40.34,22.95-13.25-31.73-18.33,58.2,3,19.36-11.2-69.87-40.35-23,13.26Zm62-72.51,18.26,10.55,20.46-11.81L392,127.92l23.56-13.59-51.61-29.8,20.46-11.81L366.1,62.17ZM312,174.08l23.55-13.59-22.41-12.91,29.14-16.84-17.76-10.25-29.15,16.83-12-6.92,33.24-19.21L298.94,101,242.15,133.8Z"/><path class="cls-20" d="M239.62,171.74l-58.31-3L162,180l69.87,40.35L254.78,207l-31.73-18.33,58.2,3,19.36-11.2-69.87-40.35-23,13.26Zm62.09-72.51L320,109.78,340.44,98,392,127.76l23.57-13.59L364,84.37l20.46-11.81L366.1,62Zm10.37,74.69,23.56-13.59-22.37-12.91,29.14-16.83-17.76-10.26L295.5,137.16l-12-6.92L316.76,111,299,100.78,242.2,133.57Z"/><path class="cls-21" d="M239.62,171.58l-58.31-3L162,179.79l69.87,40.35,22.95-13.26-31.73-18.33,58.2,3,19.36-11.2L230.74,140l-23,13.26Zm62.09-72.51L320,109.62l20.39-11.83L392,127.58,415.54,114,363.93,84.2l20.46-11.82L366.1,61.85Zm10.37,74.7,23.56-13.61-22.42-12.9,29.14-16.83L324.6,120.2,295.45,137l-12-6.92,33.24-19.21-17.77-10.24-56.79,32.78Z"/><path class="cls-22" d="M239.62,171.44l-58.31-3L162,179.65,231.83,220l22.89-13.33L223,188.33l58.26,3,19.36-11.2L230.74,139.8l-23,13.26Zm62.09-72.5L320,109.48l20.46-11.82,51.6,29.8,23.5-13.66L363.93,84l20.46-11.83L366.1,61.69Zm10.37,74.69L335.64,160l-22.42-12.9,29.14-16.83L324.6,120l-29.15,16.82-12-6.91,33.24-19.21-17.77-10.27-56.79,32.79Z"/><path class="cls-23" d="M239.62,171.26l-58.37-3-19.36,11.21,69.87,40.35,23-13.26L223,188.2l58.26,3L300.61,180l-69.87-40.33-23,13.24Zm62.09-72.49L320,109.3l20.46-11.81L392,127.28l23.57-13.59L364,83.89l20.46-11.81L366.1,61.53Zm10.37,74.68,23.56-13.61-22.42-12.9,29.14-16.83L324.6,119.85l-29.15,16.83-12-6.87,33.24-19.21-17.77-10.26-56.79,32.78Z"/><path class="cls-24" d="M239.62,171.1l-58.31-3L162,179.31l69.87,40.35,22.95-13.26-31.73-18.33,58.2,3,19.36-11.21-69.87-40.33-23,13.26Zm62.09-72.49L320,109.14l20.46-11.8,51.6,29.8,23.57-13.61L364,83.73l20.46-11.81L366.1,61.37Zm10.37,74.68,23.56-13.61-22.42-12.9L342.36,130,324.6,119.69l-29.15,16.83-12-6.92,33.24-19.21-17.77-10.26L242.15,133Z"/><path class="cls-25" d="M239.62,170.94l-58.31-3L162,179.15l69.8,40.32,23-13.26L223,187.89l58.26,3,19.36-11.21-69.84-40.26-23,13.25Zm62.09-72.49L319.91,109l20.46-11.82L392,127l23.56-13.61-51.61-29.8,20.46-11.81L366.1,61.22Zm10.37,74.68,23.56-13.61-22.42-12.9,29.14-16.81L324.6,119.55l-29.15,16.82-12-6.9,33.24-19.21L298.94,100l-56.79,32.79Z"/><path class="cls-26" d="M239.62,170.78l-58.31-3L162,179l69.87,40.33,22.95-13.25-31.73-18.32,58.2,3,19.36-11.21-69.87-40.34-23,13.25Zm62.09-72.49L320,108.84,340.44,97l51.6,29.8,23.57-13.61L363.93,83.38l20.46-11.81L366.1,61.06ZM312,173l23.55-13.6-22.41-12.92L342.3,129.7l-17.76-10.26-29.09,16.77-12-6.91,33.24-19.21L298.94,99.82l-56.79,32.79Z"/><path class="cls-27" d="M239.62,170.64l-58.31-3L162,178.83l69.87,40.33,22.95-13.25-31.73-18.32,58.2,3.06,19.36-11.21L230.74,139.1l-23,13.25Zm62.09-72.51L320,108.68l20.46-11.82L392,126.61,415.54,113,363.93,83.2l20.46-11.81L366.1,61Zm10.37,74.68,23.56-13.59L313.22,146.3l29.14-16.83L324.6,119.23l-29.15,16.82-12-6.91,33.24-19.21L298.94,99.66l-56.79,32.79Z"/><path class="cls-28" d="M239.62,170.48l-58.31-3L162,178.67,231.83,219l22.95-13.24L223,187.45l58.26,3,19.36-11.21-69.87-40.34-22.93,13.36ZM301.71,98,320,108.52,340.44,96.7,392,126.5l23.57-13.61L364,83.09l20.46-11.8L366.1,60.74Zm10.37,74.68,23.56-13.59-22.42-12.9,29.14-16.85L324.6,119.07l-29.15,16.82-12-6.91,33.24-19.21L298.94,99.5l-56.79,32.81Z"/><path class="cls-29" d="M239.62,170.32l-58.31-3L162,178.53l69.87,40.34,22.95-13.25-31.73-18.33,58.2,3L300.61,179,230.74,138.7l-23,13.25Zm62-72.53,18.26,10.55,20.46-11.82L392,126.32l23.56-13.59-51.61-29.8,20.46-11.81L366.1,60.58ZM312,172.48l23.55-13.6L313.16,146l29.14-16.83-17.76-10.26-29.09,16.84-12-6.91,33.24-19.21L298.94,99.36l-56.79,32.79Z"/><path class="cls-30" d="M239.62,170.16l-58.31-3L162,178.37l69.87,40.34,22.95-13.25-31.73-18.33,58.2,3,19.36-11.21-69.87-40.34-23,13.25Zm62.09-72.51L320,108.2l20.46-11.82,51.6,29.8,23.57-13.6L364,82.79,384.45,71,366.1,60.42Zm10.37,74.7,23.56-13.61-22.37-12.92L342.41,129l-17.76-10.26-29.2,16.84-12-6.91,33.24-19.22L298.94,99.2,242.15,132Z"/><path class="cls-31" d="M239.62,170l-58.31-3L162,178.21l69.87,40.34,22.95-13.25L223.05,187l58.2,3,19.36-11.21-69.87-40.34-23,13.25Zm62.09-72.51L320,108l20.39-11.85L392,126l23.56-13.59L363.93,82.6l20.46-11.82L366.1,60.26Zm10.37,74.7,23.56-13.61-22.42-12.9,29.14-16.83L324.6,118.6l-29.15,16.81-12-6.91,33.24-19.22L298.94,99l-56.79,32.79Z"/><path class="cls-32" d="M239.62,169.84l-58.31-3L162,178.05l69.87,40.34,22.89-13.33L223,186.73l58.26,3.05,19.36-11.2-69.87-40.35-23,13.26Zm62.09-72.5L320,107.88l20.46-11.82,51.6,29.8,23.5-13.66L363.93,82.4l20.46-11.81L366.1,60.1ZM312.08,172l23.56-13.61-22.42-12.9,29.14-16.83L324.6,118.43l-29.15,16.82-12-6.91,33.24-19.22L298.94,98.86l-56.79,32.79Z"/><path class="cls-33" d="M239.62,169.67l-58.37-3-19.36,11.21,69.87,40.35,23-13.26L223,186.6l58.26,3,19.36-11.2-69.87-40.33-23,13.24Zm62.09-72.49L320,107.72l20.46-11.8L392,125.7l23.57-13.6L364,82.31l20.4-11.74L366.1,59.94Zm10.37,74.69,23.56-13.61-22.42-12.9,29.14-16.83L324.6,118.27l-29.15,16.82-12-6.88L316.71,109,298.94,98.73l-56.79,32.79Z"/><path class="cls-34" d="M239.62,169.51l-58.31-3L162,177.73l69.87,40.34,22.95-13.25L223.05,186.5l58.2,3,19.36-11.2-69.87-40.33-23,13.25ZM301.71,97,320,107.57l20.46-11.81L392,125.55l23.57-13.61L364,82.15l20.46-11.82L366.1,59.78Zm10.37,74.69,23.56-13.61-22.42-12.9,29.14-16.83L324.6,118.11l-29.15,16.82-12-6.91,33.24-19.22L298.94,98.54l-56.79,32.87Z"/><path class="cls-35" d="M239.62,169.35l-58.31-3L162,177.57l69.8,40.3,23-13.26L223,186.29l58.26,3,19.36-11.2-69.84-40.29-23,13.26Zm62.09-72.49,18.2,10.54,20.46-11.82L392,125.38l23.56-13.61L363.93,82l20.46-11.81L366.1,59.64Zm10.37,74.69L335.64,158,313.22,145l29.14-16.83L324.6,118l-29.15,16.82-12-6.9,33.24-19.21L298.94,98.4l-56.79,32.79Z"/><path class="cls-36" d="M239.62,169.19l-58.31-3L162,177.41l69.87,40.33,22.95-13.26-31.73-18.31,58.2,3,19.36-11.2-69.87-40.35-23,13.26ZM301.71,96.7,320,107.25l20.46-11.81L392,125.23l23.57-13.61L363.93,81.78,384.39,70,366.1,59.48ZM312,171.44l23.55-13.6-22.41-12.92L342.3,128.1l-17.76-10.25-29.09,16.76-12-6.91,33.24-19.22L298.94,98.22,242.15,131Z"/><path class="cls-37" d="M239.62,169.05l-58.31-3L162,177.25l69.87,40.33,22.95-13.24L223.05,186l58.2,3,19.36-11.21-69.87-40.35-23,13.26Zm62.09-72.51L320,107.09l20.46-11.81L392,125l23.56-13.61L363.93,81.6l20.46-11.8L366.1,59.37Zm10.37,74.69,23.56-13.59-22.42-12.92,29.14-16.83L324.6,117.64l-29.15,16.83-12-6.92,33.24-19.21L298.94,98.08l-56.79,32.8Z"/><path class="cls-38" d="M239.62,168.89l-58.31-3L162,177.09l69.87,40.34,22.95-13.25L223,185.85l58.26,3,19.36-11.2-69.87-40.35-22.93,13.35Zm62.09-72.51L320,106.93l20.46-11.81L392,124.91l23.57-13.59L364,81.52l20.46-11.81L366.1,59.16Zm10.37,74.69,23.56-13.59-22.42-12.91,29.14-16.84L324.6,117.48l-29.15,16.83-12-6.92,33.24-19.21L298.94,97.92l-56.79,32.8Z"/><path class="cls-39" d="M239.62,168.73l-58.31-3L162,176.94l69.87,40.35L254.78,204,223.05,185.7l58.2,3,19.36-11.2-69.87-40.35-23,13.26Zm62-72.54,18.26,10.55,20.46-11.82L392,124.72l23.56-13.59-51.61-29.8,20.46-11.81L366.1,59ZM312,170.88l23.55-13.6-22.41-12.9,29.14-16.83-17.76-10.26-29.15,16.83-12-6.92L316.65,108,298.88,97.74l-56.79,32.79Z"/><path class="cls-40" d="M239.62,168.57l-58.31-3L162,176.78l69.87,40.35,22.95-13.26-31.73-18.33,58.2,3,19.36-11.2L230.74,137l-23,13.26Zm62.09-72.51L320,106.61,340.44,94.8,392,124.59,415.61,111,364,81.2l20.46-11.81L366.1,58.84Zm10.37,74.7,23.56-13.6-22.37-12.94,29.14-16.83-17.76-10.26L295.5,134l-12-6.92,33.24-19.21L299,97.58,242.2,130.37Z"/><path class="cls-41" d="M239.62,168.41l-58.31-3L162,176.62,231.83,217l22.95-13.26-31.73-18.33,58.2,3,19.36-11.2-69.87-40.35-23,13.26Zm62.09-72.49L320,106.45l20.39-11.86L392,124.38l23.56-13.59L363.93,81l20.46-11.82L366.1,58.68Zm10.37,74.68L335.64,157l-22.42-12.9,29.14-16.83L324.6,117l-29.15,16.83-12-6.92,33.24-19.21L298.94,97.44l-56.79,32.79Z"/><path class="cls-42" d="M239.62,168.23l-58.31-3L162,176.45l69.87,40.34,22.89-13.33L223,185.12l58.26,3.08L300.61,177l-69.87-40.33-23,13.24Zm62.09-72.49L320,106.27l20.46-11.81L392,124.25l23.57-13.59L364,80.87l20.46-11.82L366.1,58.52Zm10.37,74.69,23.56-13.61-22.42-12.91,29.14-16.82L324.6,116.83l-29.15,16.82-12-6.91,33.24-19.22L298.94,97.26l-56.79,32.79Z"/><path class="cls-43" d="M239.62,168.09,181.25,165l-19.36,11.21,69.87,40.34,23-13.25L223,185l58.26,3,19.36-11.21L230.74,136.5l-23,13.26ZM301.71,95.6,320,106.13l20.46-11.8,51.6,29.8,23.57-13.61L364,80.72,384.39,69,366.1,58.36Zm10.37,74.68,23.56-13.61-22.42-12.9,29.14-16.83L324.6,116.68l-29.15,16.83-12-6.9,33.24-19.21L298.94,97.13l-56.79,32.79Z"/><path class="cls-44" d="M239.62,167.93l-58.31-3L162,176.14l69.87,40.35,22.95-13.26L223,184.88l58.26,3,19.36-11.21-69.87-40.33-23,13.26Zm62.09-72.49L320,106l20.46-11.82L392,124l23.57-13.61L364,80.56l20.46-11.81L366.1,58.21Zm10.37,74.68,23.56-13.61-22.42-12.9,29.14-16.83L324.6,116.52l-29.15,16.83-12-6.9,33.24-19.21L298.94,97l-56.79,32.84Z"/><path class="cls-45" d="M239.62,167.77l-58.31-3L162,176l69.8,40.28,23-13.25L223,184.72l58.26,3,19.36-11.21-69.84-40.3-23,13.26Zm62.09-72.49,18.2,10.51L340.37,94,392,123.77l23.56-13.6-51.61-29.8,20.46-11.81L366.1,58.05ZM312.08,170l23.56-13.59-22.42-12.92,29.14-16.84L324.6,116.35l-29.15,16.84-12-6.92,33.24-19.21L298.94,96.8l-56.79,32.79Z"/><path class="cls-46" d="M239.62,167.63l-58.31-3L162,175.82l69.87,40.33,22.95-13.25L223,184.56l58.26,3,19.36-11.21L230.74,136l-23,13.25Zm62.09-72.51L320,105.67l20.46-11.82,51.6,29.8L415.61,110,363.93,80.18l20.46-11.82L366.1,57.89ZM312,169.84l23.55-13.6-22.41-12.92L342.3,126.5l-17.76-10.25L295.45,133l-12-6.91,33.24-19.22L298.94,96.62l-56.79,32.79Z"/><path class="cls-47" d="M239.62,167.47l-58.31-3L162,175.66,231.83,216l22.95-13.24L223,184.4l58.26,3,19.36-11.21-69.87-40.35-23,13.26ZM301.71,95,320,105.51l20.46-11.82,51.6,29.8,23.57-13.61L364,80.08l20.46-11.8L366.1,57.76Zm10.37,74.68,23.56-13.59-22.42-12.9,29.14-16.85L324.6,116.06l-29.15,16.82-12-6.91,33.24-19.21L298.94,96.49,242.15,129.3Z"/><path class="cls-48" d="M239.62,167.31l-58.31-3L162,175.52l69.87,40.34,22.95-13.25L223,184.24l58.26,3L300.61,176l-69.87-40.34L207.81,149ZM301.71,94.8,320,105.35l20.46-11.82L392,123.41l23.56-13.6L363.93,80,384.39,68.2,366.1,57.57Zm10.37,74.68,23.56-13.59L313.22,143l29.14-16.83L324.6,115.9l-29.15,16.82-12-6.91,33.24-19.21L298.94,96.35l-56.79,32.79Z"/><path class="cls-49" d="M239.62,167.15l-58.31-3L162,175.36l69.87,40.34,22.95-13.25L223,184.08l58.26,3,19.36-11.21-69.87-40.34-23,13.25Zm62-72.56,18.26,10.55,20.46-11.82L392,123.12l23.56-13.59-51.61-29.8,20.46-11.82L366.1,57.41ZM312,169.29l23.55-13.61-22.41-12.9L342.3,126l-17.76-10.26-29.15,16.83-12-6.92,33.24-19.21L298.88,96.14l-56.79,32.79Z"/><path class="cls-50" d="M239.62,167l-58.31-3L162,175.2l69.87,40.34,22.95-13.25L223,183.92l58.26,3,19.36-11.21-69.87-40.34-23,13.25Zm62.09-72.51L320,105l20.46-11.82L392,123l23.57-13.6L364,79.62,384.45,67.8,366.1,57.25Zm10.37,74.7,23.56-13.61-22.37-12.95,29.14-16.83-17.76-10.26L295.5,132.36l-12-6.92,33.24-19.21L299,96,242.2,128.77Z"/><path class="cls-51" d="M239.62,166.83l-58.31-3L162,175l69.87,40.34,22.95-13.25L223,183.76l58.26,3,19.36-11.2-69.87-40.35-23,13.26Zm62.09-72.5L320,104.87,340.37,93,392,122.78l23.56-13.59-51.61-29.8,20.46-11.81L366.1,57.09ZM312.08,169l23.56-13.61-22.42-12.9,29.14-16.83L324.6,115.4l-29.15,16.83-12-6.92,33.24-19.21L298.94,95.84l-56.79,32.79Z"/><path class="cls-52" d="M239.62,166.63l-58.31-3L162,174.85l69.87,40.34,22.95-13.25L223,183.6l58.26,3,19.36-11.2-69.84-40.32-23,13.24Zm62.09-72.49L320,104.67,340.37,93,392,122.78l23.56-13.61L363.93,79.38l20.46-11.82L366.1,56.93Zm10.37,74.69,23.56-13.61-22.42-12.91,29.14-16.82L324.6,115.22l-29.15,16.83-12-6.92,33.24-19.21L298.94,95.66l-56.79,32.79Z"/><path class="cls-53" d="M239.62,166.5l-58.31-3L162,174.72l69.87,40.34,22.89-13.2L223,183.54l58.26,2.91,19.36-11.2-69.84-40.32-23,13.26ZM301.71,94,320,104.56l20.46-11.81L392,122.54l23.57-13.61L364,79.14l20.4-11.77L366.1,56.77Zm10.37,74.69,23.56-13.61-22.42-12.9,29.14-16.83L324.6,115.1l-29.15,16.82-12-6.91,33.24-19.22L298.94,95.53l-56.79,32.79Z"/><path class="cls-54" d="M239.62,166.34l-58.37-2.91-19.36,11.21L231.76,215l23-13.25L223,183.41l58.26,2.88,19.36-11.2-69.87-40.35-23,13.26Zm62.09-72.49L320,104.4l20.46-11.81L392,122.38l23.57-13.61L364,79l20.46-11.82L366.1,56.63Zm10.37,74.69L335.64,155,313.22,142l29.14-16.83L324.6,114.94l-29.15,16.82-12-6.9,33.24-19.21L298.94,95.39l-56.79,32.82Z"/><path class="cls-55" d="M239.62,166.18l-58.31-3L162,174.4l69.8,40.26,23-13.25L223,183.09l58.26,3,19.36-11.2-69.84-40.32-23,13.26Zm62.09-72.49,18.2,10.5,20.46-11.81L392,122.17l23.56-13.61L363.93,78.77,384.39,67,366.1,56.47Zm10.37,74.69,23.56-13.59-22.42-12.92L342.36,125,324.6,114.76l-29.15,16.83-12-6.92,33.24-19.21L298.94,95.2,242.15,128Z"/><path class="cls-56" d="M239.62,166l-58.31-3L162,174.24l69.87,40.33,22.95-13.24L223.05,183l58.2,3,19.36-11.2-69.87-40.35-23,13.26Zm62.09-72.51L320,104.08l20.46-11.81L392,122.06l23.57-13.61L364,78.66l20.46-11.8L366.1,56.31ZM312,168.23l23.55-13.59-22.41-12.92,29.14-16.83-17.76-10.24-29.09,16.76-12-6.92,33.24-19.21L298.94,95l-56.79,32.87Z"/><path class="cls-57" d="M239.62,165.88l-58.31-3L162,174.08l69.87,40.34,22.95-13.25-31.73-18.33,58.2,3,19.36-11.21-69.87-40.35-23,13.26Zm62.09-72.51L320,103.92l20.46-11.81L392,121.9l23.57-13.59L363.93,78.58l20.46-11.82L366.1,56.16Zm10.37,74.69,23.56-13.59-22.42-12.91,29.14-16.84L324.6,114.47,295.45,131.3l-12-6.92,33.24-19.21L298.94,94.91l-56.79,32.82Z"/><path class="cls-58" d="M239.62,165.72l-58.31-3L162,173.93l69.87,40.35L254.78,201,223,182.64l58.26,3,19.36-11.2L230.74,134.1l-22.93,13.32Zm62.09-72.51L320,103.76,340.44,92,392,121.8l23.56-13.59L363.93,78.42,384.39,66.6,366.1,56Zm10.37,74.69,23.56-13.59L313.22,141.4l29.14-16.83L324.6,114.31l-29.15,16.83-12-6.92L316.71,105,298.94,94.76l-56.79,32.81Z"/><path class="cls-59" d="M239.62,165.56l-58.31-3L162,173.77l69.87,40.35,22.95-13.26-31.73-18.33,58.2,3,19.36-11.2-69.87-40.35-23,13.26Zm62-72.57,18.26,10.55,20.46-11.82L392,121.52l23.56-13.6L363.93,78.13l20.46-11.82L366.1,55.83ZM312,167.69l23.55-13.61-22.41-12.9,29.14-16.83-17.76-10.26-29.15,16.82-12-6.91,33.24-19.21L298.88,94.54l-56.73,32.87Z"/><path class="cls-60" d="M239.62,165.4l-58.31-3L162,173.61,231.83,214l22.95-13.26-31.73-18.33,58.2,3,19.36-11.2-69.87-40.35-23,13.26Zm62-72.41,18.26,10.53,20.46-11.81L392,121.5l23.56-13.59-51.61-29.8L384.39,66.3,366.1,55.67ZM312,167.67l23.55-13.6-22.3-13,29.14-16.83-17.76-10.26L295.5,130.75l-12-6.91,33.24-19.21L299,94.36l-56.84,32.89Z"/><path class="cls-61" d="M239.62,165.24l-58.31-3L162,173.45l69.87,40.35,22.95-13.26-31.73-18.33,58.2,3L300.61,174l-69.87-40.33-23,13.24Zm62.09-72.49L320,103.28l20.46-11.81L392,121.26l23.57-13.59L364,77.87l20.46-11.81L366.1,55.51Zm10.37,74.68,23.56-13.61-22.42-12.9,29.14-16.83L324.6,113.8l-29.15,16.83-12-6.92,33.24-19.21L298.94,94.24l-56.79,32.85Z"/><path class="cls-62" d="M239.62,165l-58.31-3L162,173.25l69.87,40.34,22.95-13.26L223.05,182l58.2,3,19.36-11.21-69.87-40.33-23,13.26Zm62.09-72.49L320,103.07l20.39-11.68L392,121.18l23.56-13.61L363.93,77.78,384.39,66,366.1,55.35Zm10.37,74.69,23.56-13.61-22.42-12.91,29.14-16.82L324.6,113.62l-29.15,16.83-12-6.92,33.24-19.21L298.94,94.06l-56.79,32.87Z"/><path class="cls-63" d="M239.62,164.92l-58.31-3L162,173.13l69.87,40.35,22.89-13.23L223,181.94l58.26,2.93,19.36-11.21-69.87-40.33-23,13.26Zm62.09-72.49L320,103l20.46-11.82L392,121l23.57-13.61L364,77.55l20.4-11.78L366.1,55.2Zm10.37,74.68,23.56-13.59L313.22,140.6l29.14-16.83L324.6,113.51l-29.15,16.83-12-6.93,33.24-19.22L298.94,93.93l-56.79,32.84Z"/><path class="cls-64" d="M239.62,164.76l-58.37-2.93L161.89,173l69.87,40.33,23-13.26L223,181.79l58.26,2.92,19.36-11.21-69.87-40.34-23,13.25Zm62.09-72.49L320,102.82,340.44,91,392,120.8l23.57-13.61L364,77.39l20.46-11.81L366.1,55ZM312.08,167l23.56-13.59-22.42-12.92,29.14-16.83L324.6,113.35l-29.15,16.84-12-6.91,33.24-19.21L298.94,93.8l-56.79,32.81Z"/><path class="cls-65" d="M239.62,164.62l-58.31-3L162,172.81l69.8,40.25,23-13.25L223,181.49l58.26,3.06,19.36-11.21L230.77,133l-23,13.26Zm62.09-72.51,18.2,10.48,20.46-11.81L392,120.57,415.54,107,363.93,77.17l20.46-11.82L366.1,54.88Zm10.37,74.68,23.56-13.59-22.42-12.92,29.14-16.87L324.6,113.16,295.45,130l-12-6.92,33.24-19.21L298.94,93.6l-56.79,32.85Z"/><path class="cls-66" d="M239.62,164.46l-58.31-3L162,172.65,231.83,213l22.95-13.24-31.73-18.33,58.2,3,19.36-11.21-69.87-40.34-23,13.25ZM301.71,92,320,102.5l20.46-11.82,51.6,29.8,23.57-13.61L364,77.07l20.46-11.8L366.1,54.72ZM312,166.63,335.57,153l-22.41-12.9,29.14-16.85-17.76-10.24-29.09,16.76-12-6.92,33.24-19.21L298.94,93.42l-56.79,32.8Z"/><path class="cls-67" d="M239.62,164.3l-58.31-3L162,172.51l69.87,40.34,22.95-13.25-31.73-18.33,58.2,3L300.61,173l-69.87-40.35-23,13.26Zm62.09-72.51L320,102.34l20.46-11.82,51.6,29.8,23.57-13.6L363.93,77l20.46-11.82L366.1,54.56Zm10.37,74.68,23.56-13.59L313.22,140l29.14-16.83L324.6,112.89l-29.15,16.82-12-6.91,33.24-19.21L298.94,93.34l-56.79,32.79Z"/><path class="cls-68" d="M239.62,164.14l-58.31-3L162,172.35l69.87,40.34,22.95-13.25L223,181l58.26,3,19.36-11.21-69.87-40.34-22.93,13.3Zm62.09-72.51L320,102.18l20.46-11.82L392,120.2l23.56-13.59L363.93,76.82,384.39,65,366.1,54.4Zm10.37,74.7,23.56-13.61-22.42-12.9L342.36,123,324.6,112.73l-29.15,16.82-12-6.91,33.24-19.21L298.94,93.18,242.15,126Z"/><path class="cls-69" d="M239.62,164l-58.31-3L162,172.19l69.87,40.34,22.95-13.25L223.05,181l58.2,3,19.36-11.21-69.87-40.34-23,13.25Zm62.09-72.51L320,102,340.44,90.2,392,120l23.57-13.6L364,76.61l20.46-11.82L366.1,54.24Zm10.37,74.7,23.56-13.61-22.42-12.9,29.14-16.83L324.6,112.57l-29.15,16.82-12-6.91,33.24-19.21L298.94,93l-56.79,32.79Z"/><path class="cls-70" d="M239.62,163.82l-58.31-3L162,172l69.87,40.34,22.95-13.25-31.73-18.33,58.2,3,19.36-11.2-69.87-40.35-23,13.26Zm62-72.43,18.26,10.53L340.37,90.1,392,119.9l23.56-13.59-51.61-29.8L384.39,64.7,366.1,54.08ZM312,166.07l23.55-13.61-22.41-12.9,29.14-16.83-17.76-10.26L295.39,129.3l-12-6.92,33.24-19.21L298.88,92.91,242.09,125.7Z"/><path class="cls-71" d="M239.62,163.66l-58.31-3L162,171.87l69.87,40.34L254.78,199l-31.73-18.33,58.2,3,19.36-11.2-69.87-40.33-23,13.24Zm62.09-72.5L320,101.7l20.46-11.8L392,119.69l23.57-13.61L364,76.29l20.46-11.82L366.1,53.92Zm10.37,74.69,23.56-13.61-22.37-12.82,29.14-16.83L324.6,112.2,295.45,129l-12-6.92,33.24-19.21L298.94,92.63l-56.79,32.79Z"/><path class="cls-72" d="M239.62,163.43l-58.31-3L162,171.64,231.83,212l22.95-13.26-31.73-18.31,58.2,3,19.36-11.2-69.87-40.33-23,13.25Zm62.09-72.49L320,101.49l20.39-11.71L392,119.58,415.54,106,363.93,76.18l20.46-11.82L366.1,53.76Zm10.37,74.68L335.64,152l-22.42-12.91,29.14-16.82L324.6,112l-29.15,16.83-12-6.92,33.24-19.21L298.94,92.46l-56.79,32.79Z"/><path class="cls-73" d="M239.62,163.33l-58.31-3L162,171.55l69.87,40.33,22.89-13.23L223,180.34l58.26,2.94,19.36-11.2-69.87-40.35-23,13.26Zm62.09-72.49L320,101.39l20.46-11.81L392,119.37l23.57-13.61L364,76l20.4-11.8L366.1,53.62Zm10.37,74.69,23.56-13.59L313.22,139l29.14-16.83L324.6,111.93l-29.15,16.84-12-7,33.24-19.21L298.94,92.33l-56.79,32.79Z"/><path class="cls-74" d="M239.62,163.17l-58.37-2.94-19.36,11.21,69.87,40.33,23-13.26L223,180.19l58.26,2.93,19.36-11.2-69.87-40.35-23,13.26Zm62.09-72.49L320,101.23l20.46-11.81L392,119.21l23.57-13.61L364,75.81,384.45,64,366.1,53.46Zm10.37,74.69,23.56-13.59-22.42-12.92L342.36,122,324.6,111.78l-29.15,16.83-12-6.92,33.24-19.21L298.94,92.22,242.15,125Z"/><path class="cls-75" d="M239.62,163l-58.31-3L162,171.23l69.87,40.33,22.95-13.24L223.05,180l58.2,3,19.36-11.2-69.84-40.35-23,13.26Zm62.09-72.51L320,101.07l20.46-11.81L392,119.05l23.57-13.61L364,75.65l20.46-11.8L366.1,53.3Zm10.37,74.69,23.56-13.59L313.22,138.7l29.14-16.9L324.6,111.56l-29.15,16.82-12-6.91,33.24-19.21L298.94,92,242.15,124.8Z"/><path class="cls-76" d="M239.62,162.87l-58.31-3L162,171.08l69.8,40.38,23-13.26L223,179.87l58.26,2.93,19.36-11.2-69.87-40.35-23,13.26Zm62.09-72.51L319.91,101l20.46-11.81L392,119l23.56-13.59-51.61-29.8,20.46-11.81L366.1,53.14ZM312,165l23.55-13.59-22.41-12.9,29.14-16.85-17.76-10.24-29.15,16.82-12-6.91,33.24-19.22L298.88,91.88l-56.79,32.81Z"/><path class="cls-77" d="M239.62,162.71l-58.31-3L162,170.92l69.87,40.35L254.78,198l-31.73-18.33,58.2,3,19.36-11.2-69.87-40.35-23,13.26ZM301.71,90.2,320,100.75l20.46-11.81L392,118.73l23.57-13.59L363.93,75.38l20.46-11.82L366.1,53Zm10.37,74.69,23.56-13.59-22.42-12.91,29.14-16.83L324.6,111.3l-29.15,16.91-12-6.92,33.24-19.21L298.94,91.83l-56.79,32.79Z"/><path class="cls-78" d="M239.62,162.55l-58.31-3L162,170.76l69.87,40.35,22.95-13.26L223,179.44l58.26,3,19.36-11.2-69.87-40.35-22.93,13.29ZM301.71,90,320,100.59l20.46-11.81L392,118.6,415.54,105,363.93,75.22,384.39,63.4,366.1,52.82Zm10.37,74.7,23.56-13.6-22.42-12.91,29.14-16.83L324.6,111.14,295.45,128l-12-6.92,33.24-19.21L298.94,91.59l-56.79,32.79Z"/><path class="cls-79" d="M239.62,162.39l-58.31-3L162,170.6,231.83,211l22.95-13.26-31.73-18.33,58.2,3,19.36-11.2-69.87-40.35-23,13.26ZM301.71,89.9,320,100.43l20.46-11.81L392,118.41l23.57-13.59L364,75l20.46-11.81L366.1,52.66Zm10.37,74.68L335.64,151l-22.42-12.91,29.14-16.83L324.6,111l-29.15,16.83-12-6.92,33.24-19.21L298.94,91.39l-56.79,32.78Z"/><path class="cls-80" d="M239.62,162.23l-58.31-3L162,170.44l69.87,40.35,22.95-13.26L223.05,179.2l58.2,3L300.61,171l-69.87-40.33-23,13.24Zm62-72.45,18.26,10.54L340.37,88.5,392,118.3l23.56-13.59-51.61-29.8L384.39,63.1,366.1,52.5ZM312,164.47l23.55-13.61L313.16,138l29.14-16.83-17.76-10.26L295.39,127.7l-12-6.92,33.24-19.21L298.88,91.31l-56.79,32.78Z"/><path class="cls-81" d="M239.62,162.07l-58.31-3L162,170.28l69.87,40.35,22.95-13.26L223.05,179l58.2,3,19.36-11.21-69.87-40.33-23,13.26Zm62.09-72.49L320,100.11l20.46-11.8,51.6,29.8,23.57-13.61L364,74.7l20.46-11.81L366.1,52.34Zm10.37,74.68,23.56-13.61-22.37-12.84L342.41,121,324.6,110.6l-29.15,16.82-12-6.91,33.24-19.21L298.94,91l-56.79,32.79Z"/><path class="cls-82" d="M239.62,161.91l-58.31-3L162,170.12l69.87,40.35,22.95-13.26L223.05,178.9l58.2,3,19.36-11.21-69.87-40.33-23,13.26Zm62.09-72.49L320,100l20.39-11.79L392,118l23.56-13.61L363.93,74.58l20.46-11.82L366.1,52.19Zm10.37,74.68,23.56-13.59-22.42-12.92,29.14-16.83L324.6,110.5l-29.15,16.83-12-6.9,33.24-19.21L298.94,91l-56.79,32.79Z"/><path class="cls-83" d="M239.62,161.83l-58.31-3L162,170l69.87,40.33,22.89-13.32L223,178.74l58.26,3,19.36-11.21-69.87-40.34-23,13.25Zm62.09-72.49L320,99.89l20.46-11.82,51.6,29.8,23.57-13.61L364,74.46l20.4-11.89L366.1,52ZM312.08,164l23.56-13.59-22.42-12.92,29.14-16.83L324.6,110.42l-29.15,16.84-12-7.06L316.71,101,298.94,90.73l-56.79,32.79Z"/><path class="cls-84" d="M239.62,161.61l-58.37-3-19.36,11.21,69.87,40.32,23-13.25L223,178.59l58.26,2.95,19.36-11.21L230.74,130l-23,13.25ZM301.71,89.1,320,99.65l20.46-11.82,51.6,29.8L415.61,104,364,74.22l20.46-11.81L366.1,51.87Zm10.37,74.68,23.56-13.59-22.42-12.92,29.14-16.83L324.6,110.2,295.45,127l-12-6.91,33.24-19.21L298.94,90.63l-56.79,32.78Z"/><path class="cls-85" d="M239.62,161.45l-58.31-3L162,169.64,231.83,210l22.95-13.24L223.05,178.4l58.2,3,19.36-11.21-69.84-40.36-23,13.26Zm62.09-72.51L320,99.49l20.46-11.82,51.6,29.8,23.57-13.61L364,74.08l20.46-11.82L366.1,51.71Zm10.37,74.68L335.64,150l-22.42-12.9,29.14-16.85L324.6,110l-29.15,16.82-12-6.91,33.24-19.21L298.94,90.47l-56.79,32.81Z"/><path class="cls-86" d="M239.62,161.29l-58.31-3L162,169.5l69.8,40.36,23-13.26L223,178.27l58.26,2.95L300.61,170l-69.87-40.34-23,13.25Zm62.09-72.51,18.2,10.61,20.46-11.81L392,117.37l23.56-13.59L363.93,74l20.46-11.81L366.1,51.55ZM312,163.43l23.55-13.59-22.41-12.91,29.2-16.73L324.6,109.94l-29.15,16.83-12-6.92,33.24-19.21L298.94,90.39l-56.79,32.79Z"/><path class="cls-87" d="M239.62,161.13l-58.31-3L162,169.34l69.87,40.34,22.95-13.25L223.05,178.1l58.2,2.94,19.36-11.2-69.87-40.35-23,13.26Zm62.09-72.51L320,99.17l20.46-11.82,51.6,29.8,23.57-13.6L363.93,73.77,384.39,62,366.1,51.36Zm10.37,74.7,23.56-13.61-22.42-12.9L342.36,120,324.6,109.72l-29.15,16.89-12-6.92,33.24-19.21L298.94,90.23,242.15,123Z"/><path class="cls-88" d="M239.62,161l-58.31-3L162,169.18l69.87,40.34,22.95-13.25L223,177.84l58.26,3.06,19.36-11.21-69.87-40.34-22.93,13.27Zm62.09-72.51L320,99l20.46-11.82L392,117l23.56-13.59-51.61-29.8L384.39,61.8,366.1,51.23Zm10.37,74.7,23.56-13.61-22.42-12.9,29.14-16.83L324.6,109.56l-29.15,16.82-12-6.91,33.24-19.21L298.94,90l-56.79,32.79Z"/><path class="cls-89" d="M239.62,160.81l-58.31-3L162,169l69.87,40.34,22.95-13.25-31.73-18.33,58.2,3,19.36-11.2L230.74,129.2l-23,13.26Zm62.09-72.5L320,98.85,340.44,87l51.6,29.8,23.57-13.6L364,73.44l20.46-11.82L366.1,51.07ZM312.08,163l23.56-13.61-22.42-12.9,29.14-16.83L324.6,109.4l-29.15,16.82-12-6.91,33.24-19.21L298.94,89.83l-56.79,32.79Z"/><path class="cls-90" d="M239.62,160.65l-58.31-3L162,168.86l69.87,40.34L254.78,196l-31.73-18.33,58.2,3,19.36-11.2-69.87-40.33-23,13.24Zm62-72.47,18.26,10.54,20.46-11.8L392,116.71l23.56-13.6-51.61-29.8,20.46-11.82L366.1,50.91ZM312,162.87l23.55-13.61-22.41-12.9,29.14-16.83-17.76-10.26L295.39,126.1l-12-6.92L316.65,100,298.94,89.78l-56.79,32.79Z"/><path class="cls-91" d="M239.62,160.65l-58.31-3L162,168.86l69.87,40.34L254.78,196l-31.73-18.33,58.2,3,19.36-11.2-69.87-40.33-23,13.24Zm62-72.47,18.26,10.54,20.46-11.8L392,116.71l23.56-13.6-51.61-29.8,20.46-11.82L366.1,50.91ZM312,162.87l23.55-13.61-22.41-12.9,29.14-16.83-17.76-10.26L295.39,126.1l-12-6.92L316.65,100,298.94,89.78l-56.79,32.79Z"/></svg>