<svg id="Layer_1" data-name="Layer 1" xmlns="http://www.w3.org/2000/svg" viewBox="0 0 469.7 479.81"><defs><style>.cls-1{fill:#fff;}</style></defs><path class="cls-1" d="M415.52,73,180.63,0,0,166.92,54.22,406.8l234.85,73L469.7,312.93ZM298.28,338.26q-6.27,12.64-24.1,21.15T232.64,368q-26,0-44.4-9.86T164.18,333q-5.72-15.22-5.69-43.21V273.48h60.15V303.8c0,9.33.86,15.35,2.54,18s4.71,4,9,4a10.64,10.64,0,0,0,9.62-5.08q3.13-5.08,3.15-15.1c0-14.65-2-24.26-6-28.76s-14.2-12-30.29-22.63-26.8-18.42-32-23.21-9.57-11.5-13-20-5.16-19.39-5.16-32.61q0-28.6,7.29-41.86t23.65-20.71q16.28-7.42,39.37-7.45,25.23,0,43,8.14t23.53,20.55q5.76,12.39,5.77,42.11V189H238.94V170.56c0-8.59-.78-14.12-2.29-16.45s-4.13-3.56-7.69-3.56a9.7,9.7,0,0,0-8.84,4.79c-2,3.19-3,8-3,14.48,0,8.31,1.15,14.57,3.4,18.79s8.22,9.29,18.29,15.22q43.28,25.66,54.46,42.11T304.5,299Q304.5,325.65,298.28,338.26Z"/></svg>